# xmcd
#
# Track frame offsets: 
#        150
#        11706
#        24474
#        37981
#        51490
#        63876
#        76029
#        89440
#        104332
#        116319
#        133407
#        146003
#        161503
#        178752
#        194640
#        210337
#        227031
#        244443
#        260255
#        271677
#
# Disc length: 3863 seconds
#
# Revision: 0
# Processed by: cddbd v1.5.2PL0 Copyright (c) Steve Scherf et al.
# Submitted via: ExactAudioCopy v0.99pb4
#
DISCID=150f1514
DTITLE=Jimmy Frey - 75
DYEAR=2014
DGENRE=Chanson
TTITLE0=Zo Mooi Zo Blond En Zo Alleen
TTITLE1=Ik Geloof
TTITLE2=Aan De Overkant
TTITLE3=Rozen Voor Sandra
TTITLE4=De Zevende Hemel
TTITLE5=Happy Music
TTITLE6=Stop
TTITLE7=Als Een Kus Naar Tranen Smaakt
TTITLE8=Duw Een Beetje
TTITLE9=Meisje Van Mijn Leven
TTITLE10=De Smaak Van Je Lippen
TTITLE11=Ze Noemen Mij Een Playboy
TTITLE12=Ogen Kunnen Niet Liegen
TTITLE13=Saragossa
TTITLE14=Droom Met Me Mee
TTITLE15=Samen Leven
TTITLE16=Niemand Weet Hoeveel Ik Van Je Hou
TTITLE17=Pappie Nummer Twee
TTITLE18=Yet I Know
TTITLE19=Stay With Me
EXTD=
EXTT0=
EXTT1=
EXTT2=
EXTT3=
EXTT4=
EXTT5=
EXTT6=
EXTT7=
EXTT8=
EXTT9=
EXTT10=
EXTT11=
EXTT12=
EXTT13=
EXTT14=
EXTT15=
EXTT16=
EXTT17=
EXTT18=
EXTT19=
PLAYORDER=
